<?xml version="1.0" standalone="no"?>
<!DOCTYPE svg PUBLIC "-//W3C//DTD SVG 20010904//EN"
 "http://www.w3.org/TR/2001/REC-SVG-20010904/DTD/svg10.dtd">
<svg version="1.0" xmlns="http://www.w3.org/2000/svg"
 width="16.000000pt" height="16.000000pt" viewBox="0 0 16.000000 16.000000"
 preserveAspectRatio="xMidYMid meet">
<metadata>
Created by potrace 1.11, written by Peter Selinger 2001-2013
</metadata>
<g transform="translate(0.000000,16.000000) scale(0.002968,-0.002968)"
fill="#000000" stroke="none">
<path d="M1920 4583 c-437 -430 -909 -899 -1049 -1040 -140 -142 -356 -360
-480 -485 l-225 -227 626 1 626 0 651 652 651 651 -2 616 -3 615 -795 -783z"/>
<path d="M3010 4144 c0 -1200 0 -1222 -20 -1280 -11 -32 -32 -75 -45 -94 -14
-20 -25 -39 -25 -43 0 -8 -21 -35 -74 -94 l-39 -43 -1316 0 -1316 0 440 -440
440 -440 877 0 877 0 56 -69 c30 -37 55 -71 55 -74 0 -3 13 -27 30 -54 58 -96
60 -118 60 -841 l1 -657 439 442 440 442 0 406 0 405 224 0 224 0 444 440 443
439 -667 1 -668 0 0 945 0 946 -440 442 -439 442 -1 -1221z"/>
<path d="M1070 1050 l0 -400 171 0 171 0 64 62 64 61 0 276 0 277 -63 62 -63
62 -172 0 -172 0 0 -400z m297 228 c23 -21 23 -25 23 -222 0 -191 -1 -201 -22
-223 -18 -19 -32 -23 -85 -23 l-63 0 0 245 0 245 62 0 c50 0 66 -4 85 -22z"/>
<path d="M1740 1050 l0 -400 238 2 237 3 0 75 0 75 -162 3 -163 2 0 85 0 85
75 0 75 0 0 75 0 75 -75 0 -76 0 3 83 3 82 163 3 162 2 0 75 0 75 -240 0 -240
0 0 -400z"/>
<path d="M2414 1433 c2 -10 34 -155 71 -323 36 -168 73 -339 83 -380 l17 -75
60 -3 c33 -1 65 1 72 6 10 6 183 746 183 781 0 7 -29 11 -79 11 -74 0 -79 -2
-84 -22 -3 -13 -22 -101 -43 -197 l-38 -174 -23 104 c-13 57 -33 146 -44 197
l-21 92 -80 0 c-71 0 -79 -2 -74 -17z"/>
<path d="M1084 358 c3 -29 6 -63 6 -75 0 -30 28 -30 39 -1 l8 22 5 -22 c8 -29
38 -29 38 1 0 12 3 46 6 75 6 44 4 52 -10 52 -11 0 -16 -9 -16 -27 l-1 -28
-13 30 -13 30 -10 -30 -11 -30 -1 28 c-1 18 -6 27 -17 27 -14 0 -16 -8 -10
-52z"/>
<path d="M1210 373 c0 -98 23 -141 48 -90 l11 22 0 -22 c1 -14 7 -23 16 -23
19 0 22 8 29 88 5 51 3 62 -9 62 -8 0 -15 -7 -15 -15 0 -8 -4 -15 -10 -15 -5
0 -10 8 -10 17 0 21 -16 6 -23 -22 -4 -15 -5 -13 -6 8 -2 44 -31 35 -31 -10z"/>
<path d="M1336 358 c3 -29 7 -63 10 -75 5 -27 34 -31 34 -5 1 16 1 16 14 0 20
-26 33 -22 40 13 16 82 -1 156 -23 97 -8 -21 -8 -21 -15 3 l-8 24 -7 -25 -7
-25 -8 23 c-4 12 -14 22 -21 22 -11 0 -13 -12 -9 -52z"/>
<path d="M1552 398 c-19 -25 -42 -77 -42 -98 0 -15 6 -20 25 -20 14 0 25 -4
25 -10 0 -14 27 -12 32 3 3 6 3 40 0 75 -4 62 -17 78 -40 50z m5 -80 c-3 -8
-6 -5 -6 6 -1 11 2 17 5 13 3 -3 4 -12 1 -19z"/>
<path d="M1620 335 l0 -75 28 0 c39 0 62 28 62 77 0 46 -23 73 -63 73 -27 0
-27 0 -27 -75z m50 0 c0 -25 -4 -45 -10 -45 -5 0 -10 20 -10 45 0 25 5 45 10
45 6 0 10 -20 10 -45z"/>
<path d="M1720 335 l0 -75 45 0 c33 0 45 4 45 15 0 10 -10 15 -30 15 -20 0
-30 5 -30 15 0 8 7 15 15 15 8 0 15 7 15 15 0 8 -7 15 -15 15 -8 0 -15 7 -15
15 0 10 10 15 30 15 20 0 30 5 30 15 0 11 -12 15 -45 15 l-45 0 0 -75z"/>
<path d="M1823 397 c3 -8 11 -42 18 -76 18 -96 41 -78 65 52 5 29 3 37 -9 37
-9 0 -19 -13 -23 -32 l-8 -33 -5 30 c-4 18 -13 31 -25 33 -13 3 -17 0 -13 -11z"/>
<path d="M1940 396 c-17 -22 -8 -60 18 -71 22 -10 31 -35 12 -35 -5 0 -10 5
-10 10 0 6 -7 10 -15 10 -18 0 -20 -21 -3 -38 21 -21 57 -14 70 14 14 31 1 57
-31 62 -20 3 -31 32 -11 32 6 0 10 -4 10 -10 0 -5 9 -10 20 -10 23 0 24 4 10
31 -13 22 -52 25 -70 5z"/>
<path d="M2030 395 c0 -8 4 -15 10 -15 5 0 10 -26 12 -57 2 -44 7 -58 18 -58
11 0 16 14 18 58 2 31 7 57 12 57 6 0 10 7 10 15 0 11 -11 15 -40 15 -29 0
-40 -4 -40 -15z"/>
<path d="M2127 404 c-4 -4 -7 -31 -7 -59 0 -38 5 -56 18 -68 22 -20 43 -22 60
-5 17 17 16 141 0 136 -8 -3 -14 -27 -16 -61 -2 -31 -7 -57 -12 -57 -5 0 -10
26 -12 57 -3 52 -14 73 -31 57z"/>
<path d="M2230 335 l0 -75 33 0 c45 0 57 15 57 75 0 60 -12 75 -57 75 l-33 0
0 -75z m55 0 c0 -22 -5 -40 -12 -42 -9 -3 -13 9 -13 42 0 33 4 45 13 43 7 -3
12 -21 12 -43z"/>
<path d="M2330 335 c0 -60 3 -75 15 -75 12 0 15 15 15 75 0 60 -3 75 -15 75
-12 0 -15 -15 -15 -75z"/>
<path d="M2392 398 c-7 -7 -12 -35 -12 -63 0 -53 12 -75 40 -75 28 0 50 34 50
77 0 58 -46 93 -78 61z m38 -63 c0 -25 -4 -45 -10 -45 -5 0 -10 20 -10 45 0
25 5 45 10 45 6 0 10 -20 10 -45z"/>
<path d="M2530 391 c-5 -11 -10 -36 -10 -56 0 -20 5 -45 10 -56 12 -21 50 -25
68 -7 17 17 15 38 -3 38 -8 0 -15 -4 -15 -10 0 -5 -4 -10 -10 -10 -5 0 -10 20
-10 45 0 25 5 45 10 45 6 0 10 -4 10 -10 0 -5 7 -10 15 -10 18 0 20 21 3 38
-18 18 -56 14 -68 -7z"/>
<path d="M2642 398 c-6 -6 -12 -35 -12 -64 0 -57 15 -78 52 -72 22 3 23 8 23
73 0 67 -1 70 -25 73 -14 2 -31 -3 -38 -10z m43 -63 c0 -22 -5 -40 -12 -42 -9
-3 -13 9 -13 42 0 33 4 45 13 43 7 -3 12 -21 12 -43z"/>
<path d="M2730 335 c0 -60 3 -75 15 -75 9 0 15 10 16 23 0 12 3 16 6 8 5 -11
7 -11 14 0 6 10 9 8 9 -8 0 -14 6 -23 15 -23 12 0 15 15 15 75 0 61 -3 75 -15
75 -9 0 -19 -10 -24 -22 l-8 -23 -7 23 c-4 12 -14 22 -22 22 -11 0 -14 -17
-14 -75z"/>
<path d="M1460 275 c0 -8 7 -15 15 -15 8 0 15 7 15 15 0 8 -7 15 -15 15 -8 0
-15 -7 -15 -15z"/>
<path d="M2480 275 c0 -8 7 -15 15 -15 8 0 15 7 15 15 0 8 -7 15 -15 15 -8 0
-15 -7 -15 -15z"/>
</g>
</svg>
